<mxfile host="app.diagrams.net" modified="2023-10-12T11:35:37.683Z" agent="Mozilla/5.0 (Macintosh; Intel Mac OS X 10_15_7) AppleWebKit/537.36 (KHTML, like Gecko) Chrome/117.0.0.0 Safari/537.36" version="21.7.5" etag="A7DfEPdEnOYoFHv-pMco" type="github">
  <diagram name="Page-1" id="LNYEdcxTMMJfEH8yVEr0">
    <mxGraphModel>
      <root>
        <mxCell id="0" />
        <mxCell id="1" parent="0" />
      </root>
    </mxGraphModel>
  </diagram>
</mxfile>
